<svg width="71" height="34" viewBox="0 0 71 34" fill="none" xmlns="http://www.w3.org/2000/svg">
<rect width="70.195" height="33.9996" rx="16.9998" fill="#FF0028"/>
<path fill-rule="evenodd" clip-rule="evenodd" d="M60.1232 18.1045C59.9804 17.2042 59.4181 16.4254 58.6084 16.0067C58.0392 15.7037 57.4062 15.5399 56.7615 15.5289C56.6348 15.5289 56.5106 15.5289 56.384 15.5289C56.3027 15.5289 56.3003 15.5289 56.298 15.4453C56.298 15.419 56.298 15.3951 56.298 15.3688C56.298 14.7094 56.298 13.8922 56.298 13.2328C56.2996 12.9556 56.282 12.6785 56.2454 12.4037C56.1956 12.0185 56.0877 11.6431 55.9252 11.2903C55.6299 10.651 55.1319 10.1269 54.5084 9.79944C53.8663 9.45276 53.1498 9.26667 52.4202 9.25708C52.1 9.25708 51.2256 9.25708 50.9126 9.25708C50.7668 9.25708 50.7692 9.25708 50.7692 9.1185C50.7692 8.87957 50.7692 8.37544 50.7692 8.08395C50.7723 8.05841 50.7635 8.03285 50.7453 8.01466C50.7286 7.99794 50.6736 8.00033 50.6736 8.00033H47.4959C47.4791 7.99874 47.4622 8.00296 47.4482 8.01227C47.4359 8.02599 47.4299 8.04414 47.4314 8.06245V9.08744C47.4314 9.12806 47.4314 9.16867 47.4314 9.20929C47.4308 9.22197 47.4252 9.23388 47.4158 9.2424C47.4063 9.25092 47.3939 9.25534 47.3813 9.25469H45.2763C45.2309 9.25469 45.219 9.26902 45.2166 9.3192C45.2142 9.36937 45.2166 9.39088 45.2166 9.42433V12.43C45.2166 12.6212 45.2166 12.602 45.3862 12.602H47.2976C47.4697 12.602 47.4482 12.8696 47.4482 12.8696V15.2804C47.4482 15.2804 47.4482 15.5193 47.3215 15.5193H44.2227C44.0793 15.5193 44.096 15.6937 44.096 15.6937V18.7281C44.0898 18.7658 44.1016 18.8042 44.1279 18.8319C44.1541 18.8595 44.1919 18.8733 44.2298 18.8691H47.2857C47.4577 18.8691 47.4458 18.8547 47.4458 19.0339V25.8075C47.4458 25.9914 47.429 25.9771 47.6154 25.9771H50.6067C50.7931 25.9771 50.7764 25.9914 50.7788 25.8075V19.0913C50.7788 19.0507 50.7788 19.01 50.7788 18.9694C50.7788 18.9288 50.7907 18.8977 50.8457 18.8953H50.9675H53.4667H55.7054C55.9067 18.894 56.1058 18.9372 56.2884 19.022C56.6299 19.1709 56.8538 19.5048 56.8618 19.8773C56.8618 19.9729 56.8618 20.0685 56.8618 20.164V22.3526C56.8618 22.895 56.6372 23.1243 56.1737 23.1243H53.622C53.5742 23.1243 53.5623 23.1387 53.5646 23.1912C53.567 23.2438 54.5442 25.4658 54.7426 25.9078L54.7545 25.9293C54.7702 25.9616 54.8023 25.9827 54.8381 25.9843H54.874C55.0627 25.9843 55.4976 25.9843 55.9061 25.9843C56.2191 25.9843 56.9885 25.9843 57.2991 25.9628C57.5881 25.9403 57.874 25.8875 58.152 25.8051C59.3633 25.4471 60.1927 24.3324 60.1877 23.0694V18.9025C60.1913 18.6351 60.1697 18.3679 60.1232 18.1045ZM53.0199 15.4935C53.0213 15.5204 53.0012 15.5436 52.9745 15.5461H52.8861C52.4082 15.5461 51.3713 15.5461 50.8863 15.5461H50.8098C50.7971 15.5461 50.785 15.541 50.776 15.5321C50.7671 15.5231 50.762 15.511 50.762 15.4983V15.3788L50.7429 12.7506C50.7429 12.6001 50.731 12.6025 50.8887 12.6025C51.2184 12.6025 52.0833 12.6025 52.4226 12.6025C52.5081 12.5985 52.5937 12.609 52.6758 12.6336C52.8691 12.6895 53.0067 12.8605 53.0199 13.0612C53.0199 13.0971 53.0199 13.1329 53.0199 13.1664V15.3932C53.0199 15.4242 53.0199 15.4648 53.0199 15.4935ZM44.2848 22.6973C44.2835 22.6718 44.2625 22.6518 44.237 22.6519H41.1763C41.076 22.6519 41.076 22.6519 41.0736 22.5515V12.7555C41.0736 12.6026 41.0617 12.6074 41.2193 12.6074H43.0232C43.1881 12.6074 43.1785 12.6074 43.1785 12.4545V9.42492C43.1785 9.25289 43.1929 9.26484 43.0137 9.26484H35.6954C35.5592 9.26484 35.5377 9.25289 35.5377 9.41775V12.4545C35.5377 12.6265 35.5257 12.6146 35.7026 12.6146H37.4897C37.645 12.6146 37.6355 12.6146 37.6355 12.7627V22.4727C37.6355 22.671 37.6498 22.6495 37.4563 22.6495C36.6821 22.6495 35.1387 22.6495 34.7301 22.6495C34.6793 22.6432 34.6297 22.6676 34.6035 22.7116L33.1461 25.8989C33.1461 25.8989 33.1174 25.9538 33.1293 25.9753C33.1413 25.9968 33.158 25.992 33.2512 25.992H36.7897H44.2155C44.2752 25.992 44.2872 25.992 44.2895 25.9228V22.788C44.2919 22.7594 44.2919 22.7283 44.2895 22.6973H44.2848ZM19.6468 8.21496H16.4906C16.4722 8.21496 16.4546 8.22226 16.4416 8.23526C16.4286 8.24825 16.4213 8.26588 16.4213 8.28425C16.4213 9.08226 16.3974 16.7852 16.3974 20.6726V22.627C16.4099 22.7827 16.3508 22.9357 16.2369 23.0426C16.123 23.1495 15.9667 23.1988 15.812 23.1765H14.2662C14.1826 23.1765 14.1754 23.1765 14.1826 23.2745C14.1897 23.3724 15.155 25.5084 15.3437 25.9265C15.3622 25.9693 15.4047 25.9967 15.4513 25.9958C15.7786 25.9958 17.0544 26.0149 17.4128 25.9672C17.7316 25.9328 18.0415 25.8413 18.3279 25.6972C18.9485 25.3589 19.3998 24.7769 19.5727 24.0916C19.6791 23.7277 19.7314 23.3501 19.728 22.971C19.728 20.5658 19.728 18.1599 19.728 15.7531C19.728 13.4522 19.7137 8.8959 19.7137 8.28903C19.7157 8.27008 19.7096 8.25116 19.6968 8.23702C19.684 8.22288 19.6658 8.21485 19.6468 8.21496V8.21496ZM34.1448 18.5803H32.3194C32.2303 18.5791 32.1477 18.5333 32.0996 18.4582C32.0515 18.3832 32.0443 18.289 32.0804 18.2076L34.5414 12.6956C34.5487 12.6793 34.5472 12.6605 34.5376 12.6456C34.5279 12.6306 34.5114 12.6215 34.4936 12.6215H31.7388C31.6334 12.6217 31.5351 12.5685 31.4777 12.4802C31.4202 12.3919 31.4115 12.2805 31.4545 12.1843L33.287 8.07712C33.2943 8.06088 33.2929 8.04207 33.2832 8.02712C33.2736 8.01217 33.257 8.00311 33.2392 8.00305H29.9707C29.9495 8.00353 29.9307 8.01672 29.9229 8.0365L27.9876 12.3778C27.7893 12.7744 27.6006 13.1734 27.4286 13.5724C27.3217 13.8226 27.2291 14.0786 27.1514 14.3394C27.1139 14.4697 27.1002 14.6056 27.1108 14.7408C27.1228 15.0698 27.3033 15.3696 27.5886 15.534C27.6735 15.587 27.7641 15.6303 27.8586 15.663C28.0814 15.7409 28.3155 15.7812 28.5515 15.7825H29.7844C29.8321 15.7825 28.5611 18.5779 28.3341 19.1274C28.2188 19.3894 28.1198 19.6583 28.0378 19.9326C28.0037 20.0497 27.9884 20.1715 27.9924 20.2934C27.9937 20.6367 28.1751 20.9542 28.4703 21.1296C28.5595 21.1852 28.6549 21.2301 28.7546 21.2634C28.9852 21.3428 29.2275 21.3824 29.4714 21.3805H32.9501C32.9716 21.3814 32.9915 21.3691 33.0003 21.3494L34.1949 18.6639C34.2057 18.6465 34.2058 18.6245 34.1952 18.6069C34.1847 18.5893 34.1652 18.579 34.1448 18.5803V18.5803ZM26.0691 20.4909C25.8827 20.0922 25.7864 19.6574 25.7872 19.2174C25.7872 19.0167 25.7585 18.816 25.7418 18.6153C25.7179 18.3023 25.6916 17.9917 25.6701 17.6811C25.6486 17.3705 25.6199 17.0097 25.5937 16.6728C25.5674 16.3359 25.5411 16.011 25.5172 15.6789C25.4933 15.3468 25.4694 15.0362 25.4431 14.7232C25.4168 14.4102 25.393 14.1115 25.3691 13.8057C25.3452 13.4999 25.3213 13.1319 25.295 12.795C25.2928 12.7373 25.2864 12.6798 25.2759 12.623C25.2759 12.6015 25.166 12.6087 25.1158 12.6087H22.0098C21.9476 12.6087 21.9405 12.6087 21.9453 12.678C21.962 12.8835 21.9763 13.0889 21.993 13.2944L22.1006 14.6491C22.1268 15.0003 22.1507 15.3516 22.1794 15.7028C22.216 16.1806 22.2535 16.6625 22.2917 17.1483C22.3347 17.6954 22.3753 18.2426 22.4183 18.7897C22.4374 19.0286 22.4518 19.2508 22.4804 19.4802C22.5458 19.9996 22.644 20.5143 22.7743 21.0213C22.9436 21.7254 23.1838 22.4107 23.4911 23.0665C23.7031 23.5166 23.9626 23.9427 24.2652 24.3376C24.2963 24.3758 24.3417 24.4451 24.3656 24.4403C24.3895 24.4355 24.3799 24.4236 24.3919 24.3997C24.5902 24.0007 25.9473 20.9281 26.0476 20.7346C26.136 20.5864 26.1217 20.6175 26.0667 20.498L26.0691 20.4909ZM14.1061 12.6072H11.0001C10.9531 12.6036 10.906 12.6036 10.8591 12.6072C10.8424 12.6072 10.84 12.6072 10.8376 12.6215C10.8352 12.6359 10.8256 12.7314 10.8209 12.7888C10.7946 13.1257 10.7707 13.4626 10.7468 13.7994C10.7229 14.1363 10.6966 14.4111 10.6727 14.7169C10.6488 15.0227 10.6249 15.3596 10.5987 15.6726C10.5724 15.9856 10.5461 16.3344 10.5222 16.6666C10.4983 16.9987 10.472 17.3379 10.4458 17.6748L10.3741 18.609C10.3573 18.8097 10.3382 19.0104 10.3287 19.2111C10.3294 19.6512 10.2332 20.086 10.0467 20.4846C9.99179 20.604 9.97746 20.573 10.0467 20.7235C10.1447 20.9147 11.4803 23.9203 11.6953 24.3743C11.7097 24.4077 11.7168 24.4173 11.7288 24.4173C11.7407 24.4173 11.7981 24.3647 11.8267 24.3265C12.131 23.9323 12.3913 23.5061 12.6032 23.0554C12.9106 22.3996 13.1507 21.7144 13.32 21.0102C13.4504 20.5032 13.5485 19.9885 13.6139 19.4692C13.6426 19.2302 13.6569 19.008 13.676 18.7787C13.719 18.2315 13.7596 17.6844 13.8027 17.1372C13.8385 16.6594 13.8791 16.1815 13.915 15.6917C13.9436 15.3405 13.9675 14.9893 13.9938 14.6381L14.1013 13.2834C14.118 13.0779 14.1324 12.8724 14.1491 12.6669C14.173 12.6191 14.1634 12.612 14.1037 12.6096L14.1061 12.6072ZM32.7948 22.6422C32.3719 22.6422 29.966 22.6422 29.2707 22.6422C28.7268 22.6369 28.1869 22.5482 27.6699 22.3794C27.6442 22.3696 27.6154 22.3824 27.6054 22.408L26.1097 25.6598C26.0972 25.6849 26.1067 25.7154 26.1312 25.7291C26.4548 25.8849 26.8069 25.9727 27.1658 25.9871C27.4166 25.9871 27.4047 25.9871 27.6436 25.9871H31.3039C31.3244 25.9846 31.3423 25.9721 31.3517 25.9537L32.8378 22.7091C32.8414 22.6944 32.8384 22.6789 32.8297 22.6666C32.821 22.6542 32.8075 22.6462 32.7924 22.6446L32.7948 22.6422ZM56.9 12.58H58.5152C58.6358 12.5798 58.756 12.5662 58.8736 12.5394C59.7321 12.355 60.3018 11.5381 60.1782 10.6688C60.0546 9.79947 59.2797 9.17375 58.4039 9.23595C57.528 9.29815 56.8494 10.0271 56.8499 10.9052C56.8499 11.4189 56.8499 11.9325 56.8499 12.4462C56.8475 12.4764 56.8475 12.5068 56.8499 12.537C56.8468 12.5502 56.8509 12.5641 56.8608 12.5734C56.8706 12.5827 56.8846 12.5862 56.8976 12.5824L56.9 12.58Z" fill="white"/>
</svg>
